<svg xmlns="http://www.w3.org/2000/svg" viewBox="-8 -84.3 614.5 90.3" width="200" height="50" role="img" aria-label="Johar Singh">
  <path d="M 14 -48.95 L 33.8 -29.15 L 14 -9.35 L -5.8 -29.15 Z" fill="#B8722A"></path>
  <g transform="translate(70.3 0)" fill="#F5F2EF">
    <path d="M-2.300 18.800L-2.300 18.800L-2.300 16.800Q1.700 16.400 4.500 14.450Q7.300 12.500 8.800 7.800Q10.300 3.100 10.300-5.400L10.300-5.400L10.300-60.200Q10.300-63.900 9.750-65.650Q9.200-67.400 7.600-68.050Q6-68.700 2.800-68.800L2.800-68.800L2.800-70.800Q5.300-70.700 9.350-70.600Q13.400-70.500 17.900-70.500Q22.400-70.500 26.650-70.600Q30.900-70.700 33.700-70.800L33.700-70.800L33.700-68.800Q30.600-68.700 28.950-68.050Q27.300-67.400 26.750-65.650Q26.200-63.900 26.200-60.200L26.200-60.200L26.200-14.800Q26.200-10 25.850-5.500Q25.500-1 24.500 2.500L24.500 2.500Q22.500 9.400 15.850 14.100Q9.200 18.800-2.300 18.800ZM64.600-53.100L64.600-53.100Q71.900-53.100 77.400-50.400Q82.900-47.700 86-41.700Q89.100-35.700 89.100-25.800L89.100-25.800Q89.100-15.900 86-9.950Q82.900-4 77.400-1.300Q71.900 1.400 64.600 1.400L64.600 1.400Q57.500 1.400 51.950-1.300Q46.400-4 43.250-9.950Q40.100-15.900 40.100-25.800L40.100-25.800Q40.100-35.700 43.250-41.700Q46.400-47.700 51.950-50.400Q57.500-53.100 64.600-53.100ZM64.600-51.100L64.600-51.100Q60.600-51.100 57.900-45.150Q55.200-39.200 55.200-25.800L55.200-25.800Q55.200-12.400 57.900-6.500Q60.600-0.600 64.600-0.600L64.600-0.600Q68.700-0.600 71.350-6.500Q74-12.400 74-25.800L74-25.800Q74-39.200 71.350-45.150Q68.700-51.100 64.600-51.100ZM115.600-78.200L115.600-78.200L115.600-43.800Q118.100-49 122.350-51.050Q126.600-53.100 131.900-53.100L131.900-53.100Q136.200-53.100 138.800-52.050Q141.400-51 142.900-49.200L142.900-49.200Q144.600-47.300 145.350-44.300Q146.100-41.300 146.100-36.200L146.100-36.200L146.100-9.300Q146.100-5.100 147.550-3.600Q149-2.100 152.500-2.100L152.500-2.100L152.500 0Q150.600-0.100 146.750-0.250Q142.900-0.400 139.300-0.400L139.300-0.400Q135.400-0.400 131.750-0.250Q128.100-0.100 126.300 0L126.300 0L126.300-2.100Q129.300-2.100 130.500-3.600Q131.700-5.100 131.700-9.300L131.700-9.300L131.700-40.400Q131.700-42.900 131.200-44.750Q130.700-46.600 129.350-47.650Q128-48.700 125.500-48.700L125.500-48.700Q122.800-48.700 120.550-47.250Q118.300-45.800 116.950-43.200Q115.600-40.600 115.600-37.200L115.600-37.200L115.600-9.300Q115.600-5.100 116.800-3.600Q118-2.100 121-2.100L121-2.100L121 0Q119.200-0.100 115.700-0.250Q112.200-0.400 108.600-0.400L108.600-0.400Q104.700-0.400 100.750-0.250Q96.800-0.100 94.800 0L94.800 0L94.800-2.100Q98.300-2.100 99.750-3.600Q101.200-5.100 101.200-9.300L101.200-9.300L101.200-66.200Q101.200-70.700 99.850-72.850Q98.500-75 94.800-75L94.800-75L94.800-77.100Q98-76.800 101-76.800L101-76.800Q105.100-76.800 108.800-77.150Q112.500-77.500 115.600-78.200ZM169.900 0.700L169.900 0.700Q165.400 0.700 162.400-1Q159.400-2.700 158.000-5.550Q156.600-8.400 156.600-11.800L156.600-11.800Q156.600-16.100 158.550-18.800Q160.500-21.500 163.600-23.200Q166.700-24.900 170.150-26Q173.600-27.100 176.750-28.150Q179.900-29.200 181.850-30.650Q183.800-32.100 183.800-34.400L183.800-34.400L183.800-42.200Q183.800-44.800 182.950-46.850Q182.100-48.900 180.350-50Q178.600-51.100 175.800-51.100L175.800-51.100Q173.800-51.100 171.800-50.550Q169.800-50 168.500-48.700L168.500-48.700Q171.300-47.700 172.850-45.650Q174.400-43.600 174.400-41L174.400-41Q174.400-37.600 172.050-35.600Q169.700-33.600 166.500-33.600L166.500-33.600Q162.900-33.600 161.050-35.850Q159.200-38.100 159.200-41.300L159.200-41.300Q159.200-44.200 160.650-46.100Q162.100-48 164.700-49.700L164.700-49.700Q167.500-51.300 171.450-52.200Q175.400-53.100 180.000-53.100L180.000-53.100Q184.600-53.100 188.300-52.150Q192.000-51.200 194.500-48.700L194.500-48.700Q196.800-46.400 197.500-43.050Q198.200-39.700 198.200-34.600L198.200-34.600L198.200-7.400Q198.200-4.900 198.700-3.950Q199.200-3 200.400-3L200.400-3Q201.300-3 202.150-3.500Q203.000-4 204.000-4.700L204.000-4.700L205.000-3Q202.900-1.200 200.150-0.250Q197.400 0.700 194.000 0.700L194.000 0.700Q190.300 0.700 188.100-0.350Q185.900-1.400 184.950-3.200Q184.000-5 184.000-7.400L184.000-7.400Q181.600-3.600 178.200-1.450Q174.800 0.700 169.900 0.700ZM177.000-5.700L177.000-5.700Q179.000-5.700 180.650-6.650Q182.300-7.600 183.800-9.800L183.800-9.800L183.800-30.300Q182.900-28.800 181.300-27.600Q179.700-26.400 177.900-25.150Q176.100-23.900 174.450-22.400Q172.800-20.900 171.800-18.700Q170.800-16.500 170.800-13.400L170.800-13.400Q170.800-9.500 172.500-7.600Q174.200-5.700 177.000-5.700ZM242.300-53.100L242.300-53.100Q245.500-53.100 247.500-51.750Q249.500-50.400 250.450-48.300Q251.400-46.200 251.400-43.900L251.400-43.900Q251.400-40.200 249.250-37.850Q247.100-35.500 243.600-35.500L243.600-35.500Q240.100-35.500 238.150-37.250Q236.200-39 236.200-41.900L236.200-41.900Q236.200-44.700 237.450-46.550Q238.700-48.400 240.600-49.700L240.600-49.700Q239.200-50.100 237.800-49.600L237.800-49.600Q235.900-49.300 234.200-48.050Q232.500-46.800 231.300-44.950Q230.100-43.100 229.400-40.950Q228.700-38.800 228.700-36.800L228.700-36.800L228.700-10.300Q228.700-5.500 231.050-3.800Q233.400-2.100 238.100-2.100L238.100-2.100L238.100 0Q235.800-0.100 231.400-0.250Q227.000-0.400 222.200-0.400L222.200-0.400Q218.200-0.400 214.100-0.250Q210.000-0.100 207.900 0L207.900 0L207.900-2.100Q211.400-2.100 212.850-3.600Q214.300-5.100 214.300-9.300L214.300-9.300L214.300-40.800Q214.300-45.300 212.950-47.450Q211.600-49.600 207.900-49.600L207.900-49.600L207.900-51.700Q211.100-51.400 214.100-51.400L214.100-51.400Q218.300-51.400 221.950-51.750Q225.600-52.100 228.700-52.800L228.700-52.800L228.700-43.500Q229.900-46.200 231.900-48.400Q233.900-50.600 236.500-51.850Q239.100-53.100 242.300-53.100Z"></path>
  </g>
  <g transform="translate(347.4 0)" fill="#9A9490">
    <path d="M25.600-71.900L25.600-71.900Q30.600-71.900 33.200-70.750Q35.800-69.600 37.800-68.200L37.800-68.200Q39-67.500 39.750-67.150Q40.500-66.800 41.200-66.800L41.200-66.800Q42.200-66.800 42.650-67.900Q43.100-69 43.400-71.200L43.400-71.200L45.700-71.200Q45.600-69.500 45.450-67.150Q45.300-64.800 45.250-60.950Q45.200-57.100 45.200-50.800L45.200-50.800L42.900-50.800Q42.600-55.600 40.800-60Q39-64.400 35.550-67.200Q32.100-70 26.500-70L26.500-70Q21.200-70 17.750-66.800Q14.300-63.600 14.300-58.400L14.300-58.400Q14.300-53.900 16.600-50.850Q18.900-47.800 22.750-45.350Q26.600-42.900 31.100-40.100L31.100-40.100Q36.300-36.900 40.350-33.750Q44.400-30.600 46.750-26.800Q49.100-23 49.100-17.600L49.100-17.600Q49.100-11.200 46.200-7Q43.300-2.800 38.500-0.700Q33.700 1.400 27.900 1.400L27.900 1.400Q22.600 1.400 19.500 0.200Q16.400-1 14.200-2.300L14.200-2.300Q12-3.700 10.800-3.700L10.800-3.700Q9.800-3.700 9.350-2.600Q8.900-1.500 8.600 0.700L8.600 0.700L6.300 0.700Q6.500-1.400 6.550-4.250Q6.600-7.100 6.650-11.700Q6.700-16.300 6.700-23.300L6.700-23.300L9-23.300Q9.400-17.300 11.250-12.100Q13.100-6.900 16.950-3.750Q20.800-0.600 27.200-0.600L27.200-0.600Q30.500-0.600 33.450-1.950Q36.400-3.300 38.300-6.250Q40.200-9.200 40.200-13.900L40.200-13.900Q40.200-18 38.250-21.050Q36.300-24.100 32.800-26.750Q29.300-29.400 24.600-32.200L24.600-32.200Q19.900-35.100 15.800-38.100Q11.700-41.100 9.250-45.050Q6.800-49 6.800-54.600L6.800-54.600Q6.800-60.500 9.450-64.350Q12.100-68.200 16.400-70.050Q20.700-71.900 25.600-71.900ZM68.300-76.500L68.300-76.500Q70.900-76.500 72.800-74.600Q74.700-72.700 74.700-70.100L74.700-70.100Q74.700-67.500 72.800-65.600Q70.900-63.700 68.300-63.700L68.300-63.700Q65.700-63.700 63.800-65.600Q61.900-67.500 61.900-70.100L61.900-70.100Q61.900-72.700 63.800-74.600Q65.700-76.500 68.300-76.500ZM73.500-52.600L73.500-52.600L73.500-9.300Q73.500-5.100 75.250-3.600Q77-2.100 81.100-2.100L81.100-2.100L81.100 0Q79.400-0.100 75.950-0.250Q72.500-0.400 69-0.400L69-0.400Q65.600-0.400 62.100-0.250Q58.600-0.100 56.900 0L56.900 0L56.900-2.100Q61-2.100 62.750-3.600Q64.500-5.100 64.500-9.300L64.500-9.300L64.500-40.600Q64.500-45.100 62.900-47.250Q61.300-49.400 56.900-49.400L56.900-49.400L56.900-51.500Q60.100-51.200 63.100-51.200L63.100-51.200Q66-51.200 68.650-51.550Q71.300-51.900 73.500-52.600ZM119.800-52.900L119.800-52.900Q123.600-52.900 126.150-51.900Q128.700-50.900 130.400-49.100L130.400-49.100Q132.300-47.100 133.100-44.100Q133.900-41.100 133.900-36L133.900-36L133.900-9.300Q133.900-5.100 135.650-3.600Q137.400-2.100 141.500-2.100L141.500-2.100L141.500 0Q139.800-0.100 136.300-0.250Q132.800-0.400 129.500-0.400L129.500-0.400Q126.200-0.400 123.050-0.250Q119.900-0.100 118.300 0L118.300 0L118.300-2.100Q121.900-2.100 123.400-3.600Q124.900-5.100 124.900-9.300L124.900-9.300L124.900-38.200Q124.900-41.300 124.400-43.900Q123.900-46.500 122.150-48.100Q120.400-49.700 116.800-49.700L116.800-49.700Q112.600-49.700 109.450-47.300Q106.300-44.900 104.550-40.750Q102.800-36.600 102.800-31.500L102.800-31.500L102.800-9.300Q102.800-5.100 104.300-3.600Q105.800-2.100 109.400-2.100L109.400-2.100L109.400 0Q107.800-0.100 104.650-0.250Q101.500-0.400 98.200-0.400L98.200-0.400Q94.900-0.400 91.400-0.250Q87.900-0.100 86.200 0L86.200 0L86.200-2.100Q90.300-2.100 92.050-3.600Q93.800-5.100 93.800-9.300L93.800-9.300L93.800-40.600Q93.800-45.100 92.200-47.250Q90.600-49.400 86.200-49.400L86.200-49.400L86.200-51.500Q89.400-51.200 92.400-51.200L92.400-51.200Q95.300-51.200 97.950-51.550Q100.600-51.900 102.800-52.600L102.800-52.600L102.800-40.800Q105.400-47.600 110.050-50.250Q114.700-52.900 119.800-52.900ZM164.300 18.800L164.300 18.800Q159 18.800 154.300 17.700Q149.600 16.600 146.750 14.250Q143.900 11.900 143.900 8.300L143.900 8.300Q143.900 4.800 146.700 2.300Q149.500-0.200 154.300-1.500L154.300-1.500L154.900 0.100Q152.700 0.800 151.400 2.900Q150.100 5 150.100 7.600L150.100 7.600Q150.100 12.200 154.350 14.650Q158.600 17.100 165.400 17.100L165.400 17.100Q169.900 17.100 174.200 15.950Q178.500 14.800 181.300 12.100Q184.100 9.400 184.100 5L184.100 5Q184.100 1.700 181.750-0.450Q179.400-2.600 172.500-2.600L172.500-2.600L165.100-2.600Q161.900-2.600 158.900-3.100Q155.900-3.600 154-5.200Q152.100-6.800 152.100-10.100L152.100-10.100Q152.100-13.500 154.900-16.700L154.900-16.700Q157-19 161.800-21.500L161.800-21.500Q158.600-21.800 155.900-23L155.900-23Q151.900-24.600 149.600-28.100Q147.300-31.600 147.300-37.100Q147.300-42.600 149.600-46.100Q151.900-49.600 155.900-51.250Q159.900-52.900 164.800-52.900L164.800-52.900Q169.800-52.900 173.800-51.300L173.800-51.300Q176.700-50 178.700-47.700L178.700-47.700Q180.100-49.700 182.200-51.300L182.200-51.300Q185.600-53.900 189.300-53.900L189.300-53.900Q191.900-53.900 193.500-52.450Q195.100-51 195.100-48.100L195.100-48.100Q195.100-45 193.450-43.750Q191.800-42.500 190.100-42.500L190.100-42.500Q188.600-42.500 187.300-43.550Q186-44.600 185.800-46.900L185.800-46.900Q185.600-48.900 186.800-51.800L186.800-51.800Q183.900-50.500 182.500-49.200L182.500-49.200Q181.200-47.900 180-46L180-46Q182.300-42.600 182.300-37.100L182.300-37.100Q182.300-31.600 180-28.100Q177.700-24.600 173.750-22.950Q169.800-21.300 164.800-21.300L164.800-21.300Q164.800-21.300 164.800-21.300L164.800-21.300Q162.400-19.900 160.500-18.600L160.500-18.600Q158-16.700 158-14.200L158-14.200Q158-11 162.800-11L162.800-11L175.300-11Q179.500-11 183.050-9.800Q186.600-8.600 188.800-6Q191-3.400 191 0.800L191 0.800Q191 5.500 188 9.600Q185 13.700 179.050 16.250Q173.100 18.800 164.300 18.800ZM164.800-23.100L164.800-23.100Q168.600-23.100 170.750-26.100Q172.900-29.100 172.900-37.100Q172.900-45.100 170.750-48.100Q168.600-51.100 164.800-51.100L164.800-51.100Q161.100-51.100 158.900-48.100Q156.700-45.100 156.700-37.100Q156.700-29.100 158.900-26.100Q161.100-23.100 164.800-23.100ZM214.400-78.300L214.400-78.300L214.400-40.900Q217-47.700 221.650-50.300Q226.300-52.900 231.400-52.900L231.400-52.900Q235.200-52.900 237.750-51.900Q240.300-50.900 242-49.100L242-49.100Q243.900-47.100 244.700-44.100Q245.500-41.100 245.500-36L245.500-36L245.500-9.300Q245.500-5.100 247.250-3.600Q249-2.100 253.100-2.100L253.100-2.100L253.100 0Q251.400-0.100 247.900-0.250Q244.400-0.400 241.100-0.400L241.100-0.400Q237.800-0.400 234.650-0.250Q231.500-0.100 229.900 0L229.900 0L229.900-2.100Q233.500-2.100 235-3.600Q236.500-5.100 236.500-9.300L236.500-9.300L236.500-38.200Q236.500-41.300 236-43.900Q235.500-46.500 233.750-48.100Q232-49.700 228.400-49.700L228.400-49.700Q224.300-49.700 221.150-47.400Q218-45.100 216.200-41Q214.400-36.900 214.400-31.600L214.400-31.600L214.400-9.300Q214.400-5.100 215.900-3.600Q217.400-2.100 221-2.100L221-2.100L221 0Q219.400-0.100 216.250-0.250Q213.100-0.400 209.800-0.400L209.800-0.400Q206.500-0.400 203-0.250Q199.500-0.100 197.800 0L197.800 0L197.800-2.100Q201.900-2.100 203.650-3.600Q205.400-5.100 205.400-9.300L205.400-9.300L205.400-66.300Q205.400-70.800 203.800-72.950Q202.200-75.100 197.800-75.100L197.800-75.100L197.800-77.200Q201-76.900 204-76.900L204-76.900Q206.900-76.900 209.550-77.250Q212.200-77.600 214.400-78.300Z"></path>
  </g>
</svg>
